<svg width="0" height="0" class="hidden">
  <symbol fill="none" xmlns="http://www.w3.org/2000/svg" viewBox="0 0 17 17" id="twitter-icon">
    <path d="M10.95 1.144c1.685-.496 2.984.27 3.577 1.179.673-.231 1.331-.481 2.011-.708a2.345 2.345 0 01-.857 1.768c.685.17 1.304-.491 1.304-.491-.169 1-1.006 1.788-1.563 2.024-.231 6.75-3.175 11.217-10.077 11.082h-.446c-.41 0-4.164-.46-4.898-1.887 2.271.196 3.893-.422 4.693-1.177-.96-.3-2.679-.477-2.979-2.95.349.106.564.228 1.19.119C1.705 9.247.374 8.53.448 6.33c.285.328 1.067.536 1.34.472-.703-.241-1.97-3.36-.894-4.952 1.818 1.854 3.735 3.606 7.152 3.773.208-2.293 1.137-3.83 2.904-4.479z" fill="#fff"></path>
  </symbol>
  <symbol fill="none" xmlns="http://www.w3.org/2000/svg" viewBox="0 0 12 22" id="fb-icon">
    <path d="M12 4V0H8a4 4 0 00-4 4v4H0v4h4v10h4V12h4V8H8V4h4z" fill="#fff"></path>
  </symbol>
  <symbol fill="none" xmlns="http://www.w3.org/2000/svg" viewBox="0 0 20 16" id="youtube-icon">
    <path fill-rule="evenodd" clip-rule="evenodd" d="M3 0h14c1.65 0 3 1.35 3 3v10c0 1.65-1.35 3-3 3H3c-1.65 0-3-1.35-3-3V3c0-1.65 1.35-3 3-3zm3.027 4.002v7.996L15.014 8 6.027 4.002z" fill="#fff"></path>
  </symbol>
  <symbol fill="none" xmlns="http://www.w3.org/2000/svg" viewBox="0 0 11 10" id="up-dir-icon">
    <path d="M5.5 0L0 10h11L5.5 0z" fill="#CACACA"></path>
  </symbol>
  <symbol fill="none" xmlns="http://www.w3.org/2000/svg" viewBox="0 0 11 10" id="down-dir-icon">
    <path d="M5.5 10L0 0h11" fill="#81B3D2"></path>
  </symbol>
  <symbol fill="none" xmlns="http://www.w3.org/2000/svg" viewBox="0 0 21 23" id="calendar-icon">
    <path fill-rule="evenodd" clip-rule="evenodd" d="M16.406 3.025h2.845c.966 0 1.749.822 1.749 1.837v16.302C21 22.179 20.217 23 19.251 23H1.75C.784 23 0 22.179 0 21.164V4.862c0-1.015.784-1.837 1.75-1.837h2.843V1.648c0-.381.294-.689.657-.689.362 0 .656.308.656.689v1.377h3.938V1.648c0-.381.294-.689.657-.689.361 0 .655.308.655.689v1.377h3.938V1.648c0-.381.293-.689.656-.689.362 0 .656.308.656.689v1.377zm3.159 18.459a.448.448 0 00.123-.32h.001V4.862a.449.449 0 00-.437-.459h-2.845v1.378c0 .381-.294.689-.656.689-.363 0-.656-.308-.656-.689V4.403h-3.938v1.378c0 .381-.294.689-.655.689-.363 0-.657-.308-.657-.689V4.403H5.907v1.378c0 .381-.294.689-.656.689-.363 0-.657-.308-.657-.689V4.403H1.75a.45.45 0 00-.438.459v16.302a.45.45 0 00.438.459h17.501a.448.448 0 00.314-.139z" fill="#A9A9A9"></path>
    <path fill-rule="evenodd" clip-rule="evenodd" d="M4.594 9.225h2.625v2.066H4.594V9.225zm0 3.443h2.625v2.067H4.594v-2.067zm2.625 3.444H4.594v2.066h2.625v-2.066zm1.969 0h2.625v2.066H9.188v-2.066zm2.625-3.444H9.188v2.067h2.625v-2.067zM9.188 9.225h2.625v2.066H9.188V9.225zm7.218 6.887h-2.625v2.066h2.625v-2.066zm-2.625-3.444h2.625v2.067h-2.625v-2.067zm2.625-3.443h-2.625v2.066h2.625V9.225z" fill="#A9A9A9"></path>
  </symbol>
  <symbol fill="none" xmlns="http://www.w3.org/2000/svg" viewBox="0 0 12 3" id="minus-icon">
    <path fill="#A9A9A9" d="M0 0h12v3H0z"></path>
  </symbol>
  <symbol fill="none" xmlns="http://www.w3.org/2000/svg" viewBox="0 0 11 11" id="plus-icon">
    <path fill-rule="evenodd" clip-rule="evenodd" d="M4.23 6.77V11h2.54V6.77H11V4.23H6.77V0H4.23v4.23H0v2.54h4.23z" fill="#A9A9A9"></path>
  </symbol>
  <symbol fill="none" xmlns="http://www.w3.org/2000/svg" viewBox="0 0 19 17" id="star-icon">
    <path d="M9.002 0l2.126 6.494h6.877l-5.564 4.012L14.566 17l-5.564-4.013L3.438 17l2.126-6.494L0 6.494h6.878L9.002 0z" fill="#81B3D2"></path>
  </symbol>
  <symbol fill="none" xmlns="http://www.w3.org/2000/svg" viewBox="0 0 115 41" id="htmlacademy-logo">
    <path fill-rule="evenodd" clip-rule="evenodd" d="M15.52 1.057h-.17L0 2.72v28.776l15.35 9.343 15.352-9.344V2.72L15.52 1.057zm61.498 1.565h-1.93v13.11h1.93V2.621zm-36.156.01v5.136a3.976 3.976 0 012.849-1.23 3.387 3.387 0 012.614 1.007 3.55 3.55 0 011.015 2.662v5.556h-1.973v-5.297a1.984 1.984 0 00-.41-1.44 1.899 1.899 0 00-1.289-.718h-.316a3.081 3.081 0 00-2.448 1.5v5.955H38.9V2.633h1.963zm36.156 28.852h-1.74v-1.425a4.061 4.061 0 01-3.366 1.662c-2.437-.168-4.33-2.239-4.33-4.736 0-2.498 1.893-4.569 4.33-4.737a3.98 3.98 0 013.165 1.402v-5.33h1.941v13.164zm-29.952-1.425c.197-.008.392-.044.58-.107v1.435a3.38 3.38 0 01-1.245.226 1.758 1.758 0 01-1.762-1.079 5.035 5.035 0 01-3.313 1.166c-1.593 0-3.07-.896-3.07-2.752 0-2.298 2.11-3.01 3.914-3.01.77.013 1.537.103 2.29.27v-.324c0-1.079-.802-1.91-2.31-1.91a7.682 7.682 0 00-3.166.69V22.83a10.56 10.56 0 013.365-.593c2.49 0 4.02 1.209 4.02 3.938v3.237a.592.592 0 00.13.429c.096.12.236.194.387.208h.18v.01zM40.27 28.84c.027.389.205.75.495 1.004.289.253.666.378 1.046.345h.116a3.537 3.537 0 002.542-1.079v-1.532a10.039 10.039 0 00-1.91-.227c-1.055 0-2.278.356-2.278 1.49h-.01zm15.752-5.902a5.183 5.183 0 00-2.712-.69h-.369a4.514 4.514 0 00-3.18 1.471 4.722 4.722 0 00-1.23 3.341v.442c.164 2.498 2.273 4.39 4.716 4.23 1.004.024 2-.187 2.912-.615v-1.845a5.185 5.185 0 01-2.564.69 2.885 2.885 0 01-2.657-1.426 3.024 3.024 0 010-3.07 2.884 2.884 0 012.657-1.427c.865-.003 1.71.26 2.427.755v-1.856zM66.15 30.06a2.08 2.08 0 00.58-.108v1.435c-.397.153-.82.23-1.244.226a1.758 1.758 0 01-1.762-1.079 5.035 5.035 0 01-3.313 1.166c-1.593 0-3.07-.896-3.07-2.752 0-2.298 2.11-3.01 3.914-3.01.77.013 1.537.103 2.29.27v-.324c0-1.079-.802-1.91-2.311-1.91a7.682 7.682 0 00-3.165.69V22.83c1.084-.379 2.22-.58 3.365-.593 2.49 0 4.02 1.209 4.02 3.938v3.237a.592.592 0 00.129.429c.097.12.237.194.388.208h.18v.01zm-6.296-.212a1.468 1.468 0 01-.498-1.008h.021c0-1.133 1.16-1.489 2.279-1.489.642.015 1.281.09 1.91.227v1.532a3.537 3.537 0 01-2.543 1.079h-.116a1.404 1.404 0 01-1.053-.34zm9.472-2.918c0-1.644 1.304-2.977 2.912-2.977l.021.054c1.214 0 2.314.731 2.806 1.866v2.158a3.015 3.015 0 01-2.827 1.877c-1.608 0-2.912-1.333-2.912-2.978zm14.022-4.682c3.492 0 4.705 2.892 4.135 5.492h-6.562c.222 1.618 1.762 2.276 3.366 2.276a6.326 6.326 0 002.785-.636v1.726a7.39 7.39 0 01-3.165.615c-2.67 0-5.012-1.532-5.012-4.769a4.572 4.572 0 011.145-3.268 4.37 4.37 0 013.076-1.469h.232v.033zm-2.48 3.927c.101-1.351 1.253-2.365 2.575-2.265h.042c.62-.057 1.234.17 1.675.62.442.449.666 1.075.614 1.71H80.87v-.065zm8.62 5.287v-8.966h1.74v1.079a3.983 3.983 0 012.934-1.37 3.001 3.001 0 012.785 1.51 4.311 4.311 0 013.07-1.435 3.192 3.192 0 012.489 1.01c.647.69.971 1.631.887 2.583v5.61h-2.004v-5.556a1.74 1.74 0 00-.366-1.262 1.665 1.665 0 00-1.132-.626h-.275a2.936 2.936 0 00-2.184 1.208v6.237H95.43v-5.557a1.742 1.742 0 00-.38-1.266 1.666 1.666 0 00-1.15-.611h-.21a3.153 3.153 0 00-2.333 1.392v6.074h-1.825l-.042-.054zm24.488-8.988h-2.005l-2.648 6.798-3.018-6.787h-2.11l4.221 9.063-.18.454c-.517 1.36-1.234 2.05-2.184 2.05a2.96 2.96 0 01-.897-.13v1.694c.38.096.77.147 1.161.151 1.329 0 2.585-.744 3.534-3.086l4.126-10.206zM52.689 6.787V3.55l-1.962.464v2.719h-1.583V8.49h1.646v4.5c-.067.826.234 1.64.82 2.213a2.653 2.653 0 002.197.743 7.014 7.014 0 002.332-.378v-1.726a4.647 4.647 0 01-1.783.356c-1.14 0-1.667-.389-1.667-1.575v-4.11h3.165V6.787H52.69zm5.697 8.966V6.754h1.752v1.08a3.983 3.983 0 012.922-1.382 2.998 2.998 0 012.743 1.435c.793-.882 1.9-1.4 3.07-1.435.94-.037 1.85.347 2.491 1.052.64.704.949 1.66.843 2.617v5.62h-2.004v-5.556a1.743 1.743 0 00-.366-1.262 1.668 1.668 0 00-1.132-.626h-.243a2.937 2.937 0 00-2.184 1.209v6.236h-2.005v-5.557a1.742 1.742 0 00-.365-1.262 1.667 1.667 0 00-1.133-.626h-.242A3.153 3.153 0 0060.2 9.69v6.074h-1.815v-.01zm-29.689 14.55l.01-.006-.01.021v-.015zm0-11.983v11.983l-13.346 8.13-13.346-8.115V18.515l13.283 8.092v1.424l-9.105-5.503v1.414l9.157 5.621v1.5l-9.147-5.567v1.456l9.158 5.621 9.232-5.653v-6.107l4.114-2.492zm.01-1.542l-3.67 2.158-1.689 1.079-8.04-4.931v1.413l6.848 4.23-.148.097-1.055.582-5.665-3.452v1.445l4.473 2.72-1.055.722-3.376-2.05v1.414l2.215 1.338-2.247 1.36-13.188-8.04 13.2-8.134 13.399 8.049zm-13.42-9.506l13.42 8.081V4.563L15.362 3.13 2.015 4.564v10.79l13.273-8.082z" fill="#231F20"></path>
  </symbol>
  <symbol fill="none" xmlns="http://www.w3.org/2000/svg" viewBox="0 0 23 17" id="checkbox-on">
    <path d="M3.285 6.358L.456 9.004l7.783 7.281L22.171 3.252 19.343.606 8.24 10.99 3.285 6.358z" fill="#fff"></path>
  </symbol>
</svg>
